. 
  
http://www.torrenting.com/        :     Greatest Movie Tracker on The Net!!!
 
http://www.Torrenting.com          :     Once & For all ;)


               www . Torrenting . Com 

(((((((((((((= Enjoy No RAR releases =))))))))))))))))))))


...................................NFO:....................................

.








































          
          
              
              
                    
                    
                    
                    

Stake.Land.2010.720p.HDRiP.XviD-SiC

Poster:
[img]http://leetleech.org/images/13900921597906935211.jpg[/img]

IMDB Link:
http://www.imdb.com/title/tt1464580/

Description:
Martin was a normal teenage boy before the country collapsed in an empty pit of economic and political disaster. A vampire epidemic has swept across what is left of the nation's abandoned towns and cities, and it's up to Mister, a death dealing, rogue vampire hunter, to get Martin safely north to Canada, the continent's New Eden.

Mediainfo:
General
Complete name                    : Stake.Land.2010.720p.HDRiP.XviD-SiC.avi
Format                           : AVI
Format/Info                      : Audio Video Interleave
Format profile                   : OpenDML
File size                        : 3.78 GiB
Duration                         : 1h 38mn
Overall bit rate                 : 5 501 Kbps
Writing application              : Lavf52.91.0
Writing library                  : VirtualDub build 32842/release

Video
ID                               : 0
Format                           : MPEG-4 Visual
Format profile                   : Advanced Simple@L5
Format settings, BVOP            : No
Format settings, QPel            : No
Format settings, GMC             : No warppoints
Format settings, Matrix          : Custom
Codec ID                         : XVID
Codec ID/Hint                    : XviD
Duration                         : 1h 38mn
Bit rate                         : 5 232 Kbps
Width                            : 1 280 pixels
Height                           : 536 pixels
Display aspect ratio             : 2.35:1
Frame rate                       : 29.970 fps
Color space                      : YUV
Chroma subsampling               : 4:2:0
Bit depth                        : 8 bits
Scan type                        : Progressive
Compression mode                 : Lossy
Bits/(Pixel*Frame)               : 0.254
Stream size                      : 3.59 GiB (95%)
Writing library                  : XviD 64

Audio
ID                               : 1
Format                           : MPEG Audio
Format version                   : Version 1
Format profile                   : Layer 3
Mode                             : Joint stereo
Codec ID                         : 55
Codec ID/Hint                    : MP3
Duration                         : 1h 38mn
Bit rate mode                    : Constant
Bit rate                         : 256 Kbps
Channel(s)                       : 2 channels
Sampling rate                    : 44.1 KHz
Compression mode                 : Lossy
Stream size                      : 180 MiB (5%)
Alignment                        : Aligned on interleaves
Interleave, duration             : 26 ms (0.78 video frame)
Interleave, preload duration     : 522 ms
Writing library                  : LAME3.98.4



Screenshots:
[img]http://leetleech.org/images/27448409952444297206.png[/img]
[img]http://leetleech.org/images/61210968181274421389.png[/img]
[img]http://leetleech.org/images/42059018773120183702.png[/img]
[img]http://leetleech.org/images/69099488255819330334.png[/img]
[img]http://leetleech.org/images/72685841905211516472.png[/img]

Note: Since we brought you the first copy available of this amazing flick, we thought we'd join in on the fun with this HD source. Source used was the same .ts file that everyone else used for their encodes, we just thought we try to keep it in the HD family. I think it turned out pretty good. It will do, at least until the Blu Ray drops in August. 

Encoder: Thefuzz

Enjoy!

Respects to CaptainHomey, Cyanide, CM8, Rx, THC, ELEKTRI4KA, Killerhz, XtremE, PA, YeFsTe and everyone in the struggle...